# Created by FreeCAD <http://www.freecadweb.org>
v -0.220000 -0.137000 0.000000
v -0.220000 -0.137000 0.157000
v -0.220000 0.137000 0.000000
v -0.220000 0.137000 0.157000
v -0.219598 -0.138500 0.000000
v -0.219598 -0.138500 0.157000
v -0.219598 -0.138299 0.157750
v -0.219598 -0.137750 0.158299
v -0.219598 -0.137000 0.158500
v -0.219598 0.137000 0.158500
v -0.219598 0.137750 0.158299
v -0.219598 0.138299 0.157750
v -0.219598 0.138500 0.000000
v -0.219598 0.138500 0.157000
v -0.218500 -0.139598 0.000000
v -0.218500 -0.139598 0.157000
v -0.218500 -0.139250 0.158299
v -0.218500 -0.138299 0.159250
v -0.218500 -0.137000 0.159598
v -0.218500 0.137000 0.159598
v -0.218500 0.138299 0.159250
v -0.218500 0.139250 0.158299
v -0.218500 0.139598 0.000000
v -0.218500 0.139598 0.157000
v -0.217000 -0.140000 0.000000
v -0.217000 -0.140000 0.157000
v -0.217000 -0.139598 0.158500
v -0.217000 -0.138500 0.159598
v -0.217000 -0.137000 0.160000
v -0.217000 0.137000 0.160000
v -0.217000 0.138500 0.159598
v -0.217000 0.139598 0.158500
v -0.217000 0.140000 0.000000
v -0.217000 0.140000 0.157000
v -0.000000 -0.139598 0.158500
v -0.000000 0.139598 0.158500
v -0.000000 0.138500 0.159598
v 0.000000 -0.140000 0.000000
v 0.000000 -0.140000 0.157000
v 0.000000 -0.138500 0.159598
v 0.000000 -0.137000 0.160000
v 0.000000 0.137000 0.160000
v 0.000000 0.140000 0.000000
v 0.000000 0.140000 0.157000
v 0.017171 -0.135920 0.160000
v 0.017171 0.135920 0.160000
v 0.017359 -0.137408 0.159598
v 0.017359 0.137408 0.159598
v 0.017496 -0.138497 0.158500
v 0.017496 0.138497 0.158500
v 0.017547 -0.138896 0.157000
v 0.017547 0.138896 0.157000
v 0.024262 -0.137615 0.157000
v 0.024262 0.137615 0.157000
v 0.024311 -0.137873 0.000000
v 0.024311 0.137873 0.000000
v 0.034071 -0.132696 0.160000
v 0.034071 0.132696 0.160000
v 0.034444 -0.134149 0.159598
v 0.034444 0.134149 0.159598
v 0.034717 -0.135212 0.158500
v 0.034717 0.135212 0.158500
v 0.034817 -0.135602 0.157000
v 0.034817 0.135602 0.157000
v 0.047824 -0.131375 0.157000
v 0.047824 0.131375 0.157000
v 0.047883 -0.131557 0.000000
v 0.047883 0.131557 0.000000
v 0.050433 -0.127379 0.160000
v 0.050433 0.127379 0.160000
v 0.050985 -0.128774 0.159598
v 0.050985 0.128774 0.159598
v 0.051389 -0.129795 0.158500
v 0.051389 0.129795 0.158500
v 0.051537 -0.130169 0.157000
v 0.051537 0.130169 0.157000
v 0.066000 -0.120054 0.160000
v 0.066000 0.120054 0.160000
v 0.066723 -0.121368 0.159598
v 0.066723 0.121368 0.159598
v 0.067252 -0.122331 0.158500
v 0.067252 0.122331 0.158500
v 0.067446 -0.122683 0.157000
v 0.067446 0.122683 0.157000
v 0.069918 -0.121114 0.157000
v 0.069918 0.121114 0.157000
v 0.070000 -0.121244 0.000000
v 0.070000 0.121244 0.000000
v 0.080527 -0.110835 0.160000
v 0.080527 0.110835 0.160000
v 0.081408 -0.112049 0.159598
v 0.081408 0.112049 0.159598
v 0.082054 -0.112937 0.158500
v 0.082054 0.112937 0.158500
v 0.082290 -0.113262 0.157000
v 0.082290 0.113262 0.157000
v 0.089990 -0.107246 0.000000
v 0.089990 0.107246 0.000000
v 0.093783 -0.099869 0.160000
v 0.093783 0.099869 0.160000
v 0.094810 -0.100962 0.159598
v 0.094810 0.100962 0.159598
v 0.095561 -0.101763 0.158500
v 0.095561 0.101763 0.158500
v 0.095837 -0.102056 0.157000
v 0.095837 0.102056 0.157000
v 0.105560 -0.087327 0.160000
v 0.105560 0.087327 0.160000
v 0.106716 -0.088283 0.159598
v 0.106716 0.088283 0.159598
v 0.107246 -0.089990 0.000000
v 0.107246 0.089990 0.000000
v 0.107562 -0.088983 0.158500
v 0.107562 0.088983 0.158500
v 0.107872 -0.089239 0.157000
v 0.107872 0.089239 0.157000
v 0.115673 -0.073408 0.160000
v 0.115673 0.073408 0.160000
v 0.116939 -0.074212 0.159598
v 0.116939 0.074212 0.159598
v 0.117867 -0.074800 0.158500
v 0.117867 0.074800 0.158500
v 0.118206 -0.075016 0.157000
v 0.118206 0.075016 0.157000
v 0.121244 -0.070000 0.000000
v 0.121244 0.070000 0.000000
v 0.123961 -0.058332 0.160000
v 0.123961 0.058332 0.160000
v 0.125319 -0.058970 0.159598
v 0.125319 0.058970 0.159598
v 0.126312 -0.059438 0.158500
v 0.126312 0.059438 0.158500
v 0.126676 -0.059609 0.157000
v 0.126676 0.059609 0.157000
v 0.130295 -0.042335 0.160000
v 0.130295 0.042335 0.160000
v 0.131351 -0.047801 0.157000
v 0.131351 0.047801 0.157000
v 0.131557 -0.047883 0.000000
v 0.131557 0.047883 0.000000
v 0.131721 -0.042799 0.159598
v 0.131721 0.042799 0.159598
v 0.132766 -0.043138 0.158500
v 0.132766 0.043138 0.158500
v 0.133148 -0.043262 0.157000
v 0.133148 0.043262 0.157000
v 0.134573 -0.025671 0.160000
v 0.134573 0.025671 0.160000
v 0.136047 -0.025952 0.159598
v 0.136047 0.025952 0.159598
v 0.136730 -0.008602 0.160000
v 0.136730 0.008602 0.160000
v 0.137125 -0.026158 0.158500
v 0.137125 0.026158 0.158500
v 0.137520 -0.026233 0.157000
v 0.137520 0.026233 0.157000
v 0.137765 -0.024297 0.157000
v 0.137765 0.024297 0.157000
v 0.137873 -0.024311 0.000000
v 0.137873 0.024311 0.000000
v 0.138227 -0.008696 0.159598
v 0.138227 0.008696 0.159598
v 0.139323 -0.008765 0.158500
v 0.139323 0.008765 0.158500
v 0.139724 -0.008791 0.157000
v 0.139724 0.008791 0.157000
v 0.140000 0.000000 0.000000
vn 0.062790 -0.998027 0.000000
vn 0.999999 0.000000 0.001760
vn 0.906303 -0.422616 -0.003388
vn 0.906303 0.422616 -0.003388
vn 0.087156 -0.996191 -0.002736
vn 0.258817 -0.965920 -0.003344
vn 0.996190 0.087155 -0.003127
vn 0.996190 -0.087155 -0.003127
vn 0.965924 -0.258818 -0.002171
vn 0.876306 0.481753 0.001564
vn 0.707104 0.707104 -0.002953
vn 0.819149 0.573575 -0.002475
vn 0.422618 0.906306 -0.001824
vn 0.425779 0.904826 -0.001368
vn 0.637423 0.770512 0.001738
vn 0.573574 0.819148 -0.003257
vn 0.087156 0.996191 -0.002736
vn 0.062790 0.998027 -0.000000
vn 0.309018 -0.951056 0.001216
vn 0.309016 -0.951056 0.001216
vn 0.187381 -0.982286 0.001673
vn 0.187382 -0.982286 0.001673
vn 0.965924 0.258818 -0.002171
vn 0.728969 0.684547 0.000369
vn 0.809017 0.587785 -0.000413
vn 0.258817 0.965920 -0.003344
vn 0.615786 0.744357 0.258340
vn 0.517636 0.815665 0.258346
vn 0.379262 0.597622 0.706405
vn 0.110401 0.234613 0.965799
vn 0.044443 0.706413 0.706403
vn 0.060658 0.964146 0.258346
vn 0.060659 0.964147 0.258343
vn -0.250560 0.684556 0.684546
vn -0.250564 0.935113 0.250563
vn -0.250561 0.935113 0.250567
vn -0.694747 0.694747 0.186157
vn -0.250556 0.250556 0.935117
vn 0.257245 -0.032498 0.965800
vn 0.257245 0.032498 0.965800
vn 0.898215 -0.355628 0.258339
vn 0.929776 -0.368124 0.001412
vn 0.929776 -0.368124 0.001412
vn 0.422618 -0.906306 -0.001824
vn 0.425779 -0.904826 -0.001368
vn 0.573574 -0.819148 -0.003257
vn 0.189015 -0.177497 0.965799
vn 0.016281 -0.258777 0.965800
vn 0.016281 -0.258780 0.965799
vn -0.250556 -0.250556 0.935117
vn -0.250563 -0.250563 0.935113
vn -0.250565 -0.684550 0.684550
vn -0.963610 -0.069183 0.258203
vn -0.963610 -0.189020 0.189015
vn -0.694752 -0.186150 0.694743
vn -0.694749 -0.186156 0.694744
vn -0.694749 -0.508588 0.508588
vn -0.694754 -0.508592 0.508578
vn -0.963611 -0.258200 0.069189
vn -0.694752 -0.694738 0.186166
vn 0.929776 0.368124 0.001412
vn 0.929776 0.368124 0.001412
vn 0.968583 0.248690 -0.000868
vn 0.704223 0.661309 0.258341
vn 0.781554 0.567832 0.258341
vn 0.298527 0.918772 0.258341
vn 0.309018 0.951056 0.001216
vn 0.309016 0.951056 0.001216
vn 0.181021 0.948942 0.258341
vn 0.181020 0.948942 0.258344
vn 0.181020 0.948942 0.258343
vn 0.187381 0.982286 0.001673
vn 0.187382 0.982286 0.001673
vn 0.189015 0.177497 0.965799
vn 0.515968 0.484526 0.706407
vn 0.517637 0.815666 0.258343
vn 0.517638 0.815666 0.258340
vn 0.535826 0.844328 0.000977
vn 0.535827 0.844327 0.000977
vn 0.138935 0.218926 0.965799
vn 0.165278 0.199787 0.965799
vn 0.218723 0.673162 0.706408
vn 0.080126 0.246602 0.965799
vn 0.218724 0.673163 0.706407
vn 0.298527 0.918772 0.258342
vn 0.298528 0.918772 0.258339
vn 0.411326 0.874112 0.258340
vn 0.411326 0.874110 0.258346
vn 0.301370 0.640443 0.706405
vn 0.301369 0.640442 0.706407
vn 0.080125 0.246598 0.965800
vn 0.110400 0.234612 0.965800
vn 0.016281 0.258777 0.965800
vn 0.257247 -0.032498 0.965799
vn 0.535827 -0.844328 0.000977
vn 0.535827 -0.844327 0.000977
vn 0.637423 -0.770512 0.001738
vn 0.707104 -0.707104 -0.002953
vn 0.704222 -0.661309 0.258345
vn 0.728969 -0.684547 0.000369
vn 0.704223 -0.661309 0.258341
vn 0.138935 -0.218926 0.965799
vn 0.379262 -0.597622 0.706405
vn 0.517638 -0.815666 0.258340
vn 0.517636 -0.815665 0.258346
vn 0.517637 -0.815666 0.258343
vn 0.615785 -0.744356 0.258345
vn 0.615786 -0.744358 0.258340
vn 0.241081 -0.095451 0.965800
vn 0.241083 -0.095452 0.965799
vn 0.251143 -0.064483 0.965800
vn 0.251145 -0.064483 0.965799
vn 0.898215 -0.355629 0.258338
vn 0.898214 -0.355628 0.258340
vn 0.658102 -0.260561 0.706406
vn 0.658099 -0.260560 0.706410
vn 0.298527 -0.918772 0.258341
vn 0.181021 -0.948942 0.258341
vn 0.132629 -0.695267 0.706409
vn 0.048587 -0.254700 0.965799
vn 0.048586 -0.254699 0.965799
vn -0.250560 -0.684556 0.684546
vn -0.250561 -0.935113 0.250567
vn -0.694747 -0.694747 0.186157
vn -0.250564 -0.935113 0.250563
vn 0.189015 0.177497 0.965799
vn 0.781553 0.567831 0.258347
vn 0.615785 0.744356 0.258345
vn 0.451173 0.545374 0.706406
vn 0.704222 0.661309 0.258345
vn 0.515968 0.484527 0.706407
vn 0.379261 0.597620 0.706407
vn 0.138935 0.218927 0.965799
vn 0.451173 0.545374 0.706407
vn 0.165278 0.199787 0.965799
vn 0.132629 0.695267 0.706408
vn 0.132629 0.695267 0.706409
vn 0.044444 0.706408 0.706408
vn 0.016281 0.258780 0.965799
vn 0.048586 0.254699 0.965799
vn 0.048587 0.254700 0.965799
vn -0.963610 0.069183 0.258203
vn -0.694752 0.186150 0.694743
vn 0.702226 -0.088711 0.706405
vn 0.702222 -0.088711 0.706409
vn 0.958434 -0.121078 0.258348
vn 0.935704 -0.240248 0.258339
vn 0.685570 -0.176024 0.706406
vn 0.685567 -0.176023 0.706409
vn 0.992114 0.125334 0.000695
vn 0.992114 0.125335 0.000695
vn 0.702226 0.088711 0.706405
vn 0.958437 0.121081 0.258335
vn 0.935705 0.240248 0.258336
vn 0.958434 0.121078 0.258348
vn 0.958437 0.121079 0.258337
vn 0.138935 -0.218926 0.965799
vn 0.379261 -0.597620 0.706407
vn 0.209771 -0.152407 0.965799
vn 0.227219 -0.124914 0.965799
vn 0.620253 -0.340987 0.706410
vn 0.572627 -0.416038 0.706407
vn 0.298528 -0.918772 0.258339
vn 0.298527 -0.918772 0.258342
vn 0.301370 -0.640443 0.706405
vn 0.411326 -0.874112 0.258340
vn 0.411326 -0.874110 0.258346
vn 0.132629 -0.695267 0.706408
vn 0.181020 -0.948942 0.258343
vn 0.181020 -0.948942 0.258344
vn 0.060658 -0.964146 0.258346
vn 0.060659 -0.964147 0.258343
vn 0.044443 -0.706413 0.706403
vn 0.044444 -0.706408 0.706408
vn 0.209771 0.152407 0.965799
vn 0.572627 0.416038 0.706407
vn 0.572629 0.416039 0.706405
vn 0.898215 0.355628 0.258339
vn 0.935704 0.240248 0.258339
vn 0.685570 0.176024 0.706406
vn 0.251143 0.064483 0.965800
vn 0.241081 0.095451 0.965800
vn -0.694752 0.694738 0.186166
vn -0.694754 0.508592 0.508578
vn -0.963611 0.258200 0.069189
vn -0.963610 0.189020 0.189015
vn -0.694749 0.508588 0.508588
vn -0.694749 0.186156 0.694744
vn -0.250565 0.684550 0.684550
vn -0.250563 0.250563 0.935113
vn 0.968583 -0.248690 -0.000868
vn 0.935705 -0.240248 0.258336
vn 0.257247 0.032498 0.965799
vn 0.702222 0.088711 0.706409
vn 0.251145 0.064483 0.965799
vn 0.685567 0.176023 0.706409
vn 0.165278 -0.199787 0.965799
vn 0.165278 -0.199787 0.965799
vn 0.189015 -0.177497 0.965799
vn 0.451173 -0.545374 0.706407
vn 0.451172 -0.545374 0.706407
vn 0.515968 -0.484527 0.706407
vn 0.515968 -0.484526 0.706407
vn 0.209770 -0.152407 0.965800
vn 0.227217 -0.124914 0.965800
vn 0.781554 -0.567832 0.258341
vn 0.876306 -0.481753 0.001564
vn 0.846560 -0.465400 0.258338
vn 0.819149 -0.573575 -0.002475
vn 0.809017 -0.587785 -0.000413
vn 0.218723 -0.673162 0.706408
vn 0.218724 -0.673163 0.706407
vn 0.080125 -0.246598 0.965800
vn 0.080126 -0.246602 0.965799
vn 0.301369 -0.640442 0.706407
vn 0.110400 -0.234612 0.965800
vn 0.110400 -0.234613 0.965799
vn 0.227217 0.124914 0.965800
vn 0.209770 0.152407 0.965800
vn 0.241083 0.095452 0.965799
vn 0.227219 0.124914 0.965799
vn 0.958437 -0.121079 0.258337
vn 0.958437 -0.121081 0.258335
vn 0.992114 -0.125334 0.000695
vn 0.992114 -0.125335 0.000695
vn 0.572629 -0.416039 0.706405
vn 0.781553 -0.567831 0.258347
vn 0.620256 -0.340989 0.706405
vn 0.846558 -0.465400 0.258346
vn 0.898215 0.355629 0.258338
vn 0.898214 0.355628 0.258340
vn 0.658102 0.260561 0.706406
vn 0.658099 0.260560 0.706410
vn 0.846560 0.465400 0.258338
vn 0.846558 0.465400 0.258346
vn 0.620256 0.340989 0.706405
vn 0.620253 0.340987 0.706410
vn 0.000000 -1.000000 0.000000
vn 0.000000 -1.000000 0.000000
vn 0.000000 0.707112 0.707102
vn 0.000000 0.707112 0.707102
vn -0.707107 0.707107 0.000000
vn -0.707107 0.707107 0.000000
vn -0.965925 0.258821 0.000000
vn -0.965925 0.258821 0.000000
vn -1.000000 -0.000000 0.000000
vn -1.000000 0.000000 0.000000
vn 0.000000 0.258812 0.965928
vn 0.000000 0.258812 0.965928
vn -0.258821 0.965925 0.000000
vn -0.258821 0.965925 0.000000
vn -0.000000 0.965925 0.258823
vn 0.000000 0.965925 0.258823
vn 0.000000 1.000000 0.000000
vn 0.000000 1.000000 0.000000
vn -0.258812 0.000000 0.965928
vn -0.258812 0.000000 0.965928
vn 0.259290 -0.000000 0.965800
vn 0.259290 0.000000 0.965800
vn 0.000000 0.000000 -1.000000
vn 0.000000 -0.000000 -1.000000
vn 0.000000 0.000000 -1.000000
vn 0.000000 0.000000 -1.000000
vn 0.000000 0.000000 -1.000000
vn 0.000000 0.000000 -1.000000
vn 0.000000 0.000000 -1.000000
vn 0.000000 0.000000 -1.000000
vn 0.000000 0.000000 -1.000000
vn 0.000000 0.000000 -1.000000
vn 0.000000 0.000000 -1.000000
vn 0.000000 0.000000 -1.000000
vn 0.000000 -0.000000 -1.000000
vn 0.000000 -0.000000 -1.000000
vn 0.000000 0.000000 -1.000000
vn 0.000000 0.000000 -1.000000
vn 0.000000 0.000000 -1.000000
vn 0.000000 0.000000 -1.000000
vn -0.000000 0.000000 -1.000000
vn 0.000000 0.000000 -1.000000
vn 0.000000 0.000000 -1.000000
vn 0.000000 0.000000 -1.000000
vn 0.000000 0.000000 -1.000000
vn 0.000000 0.000000 -1.000000
vn 0.000000 0.000000 -1.000000
vn 0.000000 -0.258812 0.965928
vn 0.000000 -0.258812 0.965928
vn -0.965925 -0.258821 -0.000000
vn -0.965925 -0.258821 0.000000
vn -0.965925 0.000000 0.258823
vn -0.965925 0.000000 0.258823
vn -0.707112 0.000000 0.707102
vn -0.707112 0.000000 0.707102
vn 0.966052 -0.000000 0.258348
vn 0.966052 -0.000000 0.258348
vn 0.707808 -0.000000 0.706405
vn 0.707808 0.000000 0.706405
vn 0.000000 -0.707112 0.707102
vn 0.000000 -0.707112 0.707102
vn 0.000000 -0.965925 0.258823
vn 0.000000 -0.965925 0.258823
vn -0.707107 -0.707107 0.000000
vn -0.707107 -0.707107 0.000000
vn -0.258821 -0.965925 0.000000
vn -0.258821 -0.965925 0.000000
vn 0.000000 -0.000000 1.000000
vn 0.000000 0.000000 1.000000
vn 0.000000 0.000000 1.000000
vn 0.000000 0.000000 1.000000
vn 0.000000 -0.000000 1.000000
vn 0.000000 0.000000 1.000000
vn 0.000000 0.000000 1.000000
vn 0.000000 0.000000 1.000000
vn 0.000000 0.000000 1.000000
vn 0.000000 0.000000 1.000000
vn 0.000000 0.000000 1.000000
vn 0.000000 0.000000 1.000000
vn 0.000000 -0.000000 1.000000
vn 0.000000 0.000000 1.000000
vn 0.000000 0.000000 1.000000
vn 0.000000 0.000000 1.000000
vn 0.000000 0.000000 1.000000
vn 0.000000 0.000000 1.000000
vn 0.000000 0.000000 1.000000
vn 0.000000 0.000000 1.000000
vn 0.000000 0.000000 1.000000
vn 0.000000 0.000000 1.000000
vn 0.000000 -0.000000 1.000000
vn 0.000000 0.000000 1.000000
vn 0.000000 0.000000 1.000000
vn 0.000000 0.000000 1.000000
f 39//1 38//1 51//1
f 167//2 166//2 165//2
f 133//3 125//3 139//3
f 140//4 126//4 134//4
f 51//5 38//5 55//5
f 67//6 63//6 55//6
f 160//7 166//7 167//7
f 167//8 165//8 159//8
f 159//9 145//9 139//9
f 126//10 124//10 134//10
f 106//11 112//11 98//11
f 112//12 124//12 126//12
f 68//13 76//13 88//13
f 76//14 84//14 88//14
f 106//15 98//15 96//15
f 98//16 88//16 96//16
f 56//17 43//17 52//17
f 43//18 44//18 52//18
f 67//19 75//19 65//19
f 63//20 67//20 65//20
f 51//21 55//21 53//21
f 53//22 55//22 63//22
f 160//23 140//23 146//23
f 106//24 116//24 112//24
f 124//25 112//25 116//25
f 68//26 56//26 64//26
f 106//27 96//27 94//27
f 84//28 82//28 94//28
f 80//29 94//29 82//29
f 72//30 78//30 80//30
f 36//31 37//31 50//31
f 36//32 50//32 44//32
f 52//33 44//33 50//33
f 22//34 31//34 32//34
f 24//35 22//35 34//35
f 32//36 34//36 22//36
f 22//37 24//37 14//37
f 20//38 30//38 31//38
f 161//39 151//39 147//39
f 152//40 162//40 148//40
f 145//41 143//41 137//41
f 133//42 139//42 137//42
f 139//43 145//43 137//43
f 75//44 67//44 87//44
f 87//45 83//45 75//45
f 95//46 87//46 97//46
f 107//47 99//47 109//47
f 41//48 40//48 45//48
f 40//49 47//49 45//49
f 28//50 29//50 19//50
f 19//51 18//51 28//51
f 28//52 18//52 17//52
f 2//53 8//53 9//53
f 2//54 7//54 8//54
f 19//55 9//55 8//55
f 19//56 8//56 18//56
f 17//57 18//57 8//57
f 7//58 17//58 8//58
f 6//59 7//59 2//59
f 17//60 7//60 6//60
f 140//61 134//61 138//61
f 138//62 146//62 140//62
f 160//63 146//63 156//63
f 106//64 114//64 116//64
f 124//65 116//65 114//65
f 66//66 64//66 62//66
f 68//67 66//67 76//67
f 68//68 64//68 66//68
f 62//69 64//69 54//69
f 54//70 50//70 62//70
f 52//71 50//71 54//71
f 56//72 52//72 54//72
f 56//73 54//73 64//73
f 100//74 110//74 102//74
f 110//75 114//75 102//75
f 84//76 94//76 86//76
f 86//77 94//77 96//77
f 88//78 84//78 86//78
f 86//79 96//79 88//79
f 80//80 78//80 90//80
f 100//81 102//81 90//81
f 72//82 62//82 60//82
f 58//83 72//83 60//83
f 62//84 72//84 74//84
f 74//85 66//85 62//85
f 76//86 66//86 74//86
f 84//87 76//87 74//87
f 84//88 74//88 82//88
f 80//89 82//89 74//89
f 74//90 72//90 80//90
f 70//91 72//91 58//91
f 78//92 72//92 70//92
f 37//93 42//93 46//93
f 161//94 147//94 149//94
f 83//95 87//95 85//95
f 87//96 95//96 85//96
f 97//97 105//97 95//97
f 97//98 111//98 105//98
f 113//99 103//99 105//99
f 105//100 111//100 115//100
f 115//101 113//101 105//101
f 79//102 89//102 77//102
f 93//103 79//103 81//103
f 95//104 93//104 85//104
f 81//105 83//105 93//105
f 83//106 85//106 93//106
f 93//107 105//107 103//107
f 95//108 105//108 93//108
f 135//109 127//109 141//109
f 127//110 129//110 141//110
f 147//111 135//111 141//111
f 147//112 141//112 149//112
f 133//113 137//113 131//113
f 143//114 131//114 137//114
f 143//115 141//115 131//115
f 131//116 141//116 129//116
f 63//117 65//117 61//117
f 63//118 61//118 53//118
f 61//119 59//119 47//119
f 47//120 59//120 57//120
f 47//121 57//121 45//121
f 27//122 28//122 17//122
f 17//123 26//123 27//123
f 17//124 6//124 16//124
f 26//125 17//125 16//125
f 108//126 110//126 100//126
f 124//127 114//127 122//127
f 106//128 94//128 104//128
f 94//129 102//129 104//129
f 114//130 106//130 104//130
f 104//131 102//131 114//131
f 80//132 92//132 94//132
f 80//133 90//133 92//133
f 102//134 94//134 92//134
f 92//135 90//135 102//135
f 62//136 50//136 48//136
f 48//137 60//137 62//137
f 50//138 37//138 48//138
f 37//139 46//139 48//139
f 46//140 58//140 48//140
f 58//141 60//141 48//141
f 4//142 10//142 11//142
f 11//143 10//143 20//143
f 153//144 163//144 161//144
f 161//145 149//145 153//145
f 165//146 163//146 153//146
f 143//147 145//147 153//147
f 153//148 141//148 143//148
f 149//149 141//149 153//149
f 166//150 160//150 158//150
f 160//151 156//151 158//151
f 162//152 164//152 154//152
f 154//153 158//153 156//153
f 154//154 156//154 146//154
f 164//155 166//155 154//155
f 166//156 158//156 154//156
f 89//157 79//157 91//157
f 79//158 93//158 91//158
f 107//159 109//159 119//159
f 129//160 127//160 119//160
f 119//161 131//161 129//161
f 109//162 113//162 119//162
f 75//163 73//163 65//163
f 65//164 73//164 61//164
f 81//165 79//165 73//165
f 75//166 83//166 73//166
f 83//167 81//167 73//167
f 49//168 61//168 47//168
f 51//169 53//169 49//169
f 53//170 61//170 49//170
f 49//171 35//171 39//171
f 39//172 51//172 49//172
f 40//173 35//173 49//173
f 49//174 47//174 40//174
f 110//175 108//175 120//175
f 114//176 110//176 120//176
f 114//177 120//177 122//177
f 146//178 138//178 144//178
f 146//179 144//179 154//179
f 142//180 154//180 144//180
f 148//181 142//181 136//181
f 136//182 142//182 128//182
f 12//183 22//183 14//183
f 22//184 12//184 11//184
f 14//185 4//185 12//185
f 4//186 11//186 12//186
f 22//187 11//187 21//187
f 21//188 11//188 20//188
f 31//189 22//189 21//189
f 21//190 20//190 31//190
f 145//191 159//191 155//191
f 153//192 145//192 155//192
f 148//193 162//193 150//193
f 162//194 154//194 150//194
f 150//195 142//195 148//195
f 142//196 150//196 154//196
f 101//197 99//197 89//197
f 89//198 91//198 101//198
f 109//199 99//199 101//199
f 101//200 93//200 103//200
f 91//201 93//201 101//201
f 103//202 113//202 101//202
f 101//203 113//203 109//203
f 107//204 119//204 117//204
f 117//205 119//205 127//205
f 115//206 123//206 113//206
f 123//207 125//207 133//207
f 133//208 131//208 123//208
f 111//209 125//209 123//209
f 115//210 111//210 123//210
f 59//211 61//211 71//211
f 61//212 73//212 71//212
f 69//213 57//213 71//213
f 57//214 59//214 71//214
f 71//215 73//215 79//215
f 71//216 77//216 69//216
f 79//217 77//217 71//217
f 128//218 120//218 118//218
f 118//219 120//219 108//219
f 128//220 142//220 130//220
f 120//221 128//221 130//221
f 165//222 153//222 157//222
f 153//223 155//223 157//223
f 157//224 159//224 165//224
f 157//225 155//225 159//225
f 113//226 121//226 119//226
f 113//227 123//227 121//227
f 131//228 119//228 121//228
f 121//229 123//229 131//229
f 132//230 138//230 134//230
f 138//231 132//231 144//231
f 142//232 144//232 132//232
f 132//233 130//233 142//233
f 134//234 124//234 132//234
f 124//235 122//235 132//235
f 122//236 120//236 132//236
f 120//237 130//237 132//237
f 25//238 38//238 26//238
f 38//239 39//239 26//239
f 36//240 32//240 37//240
f 32//241 31//241 37//241
f 23//242 13//242 24//242
f 24//243 13//243 14//243
f 13//244 3//244 4//244
f 14//245 13//245 4//245
f 4//246 1//246 2//246
f 3//247 1//247 4//247
f 37//248 31//248 42//248
f 31//249 30//249 42//249
f 33//250 23//250 34//250
f 23//251 24//251 34//251
f 32//252 36//252 34//252
f 36//253 44//253 34//253
f 43//254 33//254 34//254
f 44//255 43//255 34//255
f 29//256 30//256 20//256
f 19//257 29//257 20//257
f 161//258 162//258 152//258
f 161//259 152//259 151//259
f 87//260 139//260 125//260
f 126//261 140//261 87//261
f 87//262 33//262 43//262
f 87//263 159//263 139//263
f 15//264 5//264 87//264
f 1//265 3//265 87//265
f 3//266 13//266 87//266
f 38//267 87//267 55//267
f 43//268 56//268 87//268
f 87//269 88//269 98//269
f 25//270 15//270 87//270
f 87//271 38//271 25//271
f 140//272 160//272 87//272
f 98//273 112//273 87//273
f 87//274 56//274 68//274
f 23//275 33//275 87//275
f 87//276 5//276 1//276
f 87//277 111//277 97//277
f 67//278 55//278 87//278
f 87//279 160//279 167//279
f 167//280 159//280 87//280
f 87//281 112//281 126//281
f 68//282 88//282 87//282
f 87//283 13//283 23//283
f 125//284 111//284 87//284
f 29//285 28//285 41//285
f 40//286 41//286 28//286
f 2//287 1//287 6//287
f 1//288 5//288 6//288
f 2//289 10//289 4//289
f 2//290 9//290 10//290
f 19//291 20//291 10//291
f 9//292 19//292 10//292
f 163//293 165//293 164//293
f 165//294 166//294 164//294
f 161//295 164//295 162//295
f 161//296 163//296 164//296
f 40//297 28//297 27//297
f 35//298 40//298 27//298
f 39//299 27//299 26//299
f 39//300 35//300 27//300
f 5//301 15//301 16//301
f 5//302 16//302 6//302
f 15//303 25//303 16//303
f 25//304 26//304 16//304
f 89//305 118//305 77//305
f 29//306 41//306 118//306
f 89//307 99//307 118//307
f 45//308 57//308 118//308
f 151//309 152//309 118//309
f 118//310 30//310 29//310
f 41//311 45//311 118//311
f 118//312 42//312 30//312
f 118//313 147//313 151//313
f 118//314 46//314 42//314
f 118//315 90//315 78//315
f 78//316 70//316 118//316
f 135//317 147//317 118//317
f 118//318 152//318 148//318
f 118//319 99//319 107//319
f 118//320 136//320 128//320
f 118//321 117//321 127//321
f 100//322 90//322 118//322
f 118//323 70//323 58//323
f 58//324 46//324 118//324
f 69//325 77//325 118//325
f 118//326 127//326 135//326
f 69//327 118//327 57//327
f 118//328 108//328 100//328
f 148//329 136//329 118//329
f 107//330 117//330 118//330
