# Created by FreeCAD <http://www.freecadweb.org>
v -0.014697 0.084222 0.116916
v -0.014546 0.082495 0.117913
v -0.003076 0.018316 0.001003
v -0.002925 0.016589 0.002000
v -0.000151 0.018572 0.001003
v -0.000151 0.085495 0.116916
v 0.000000 0.016845 0.002000
v 0.000000 0.083768 0.117913
vn 0.997142 0.065429 -0.037775
vn 0.997142 0.065429 -0.037775
vn -0.043453 0.496674 0.866849
vn -0.043454 0.496673 0.866850
vn -0.993355 -0.108717 -0.037775
vn -0.993355 -0.108717 -0.037775
vn 0.043453 -0.496674 -0.866849
vn 0.043453 -0.496673 -0.866849
vn 0.075551 -0.863550 0.498571
vn 0.075551 -0.863550 0.498571
vn -0.075549 0.863550 -0.498571
vn -0.075551 0.863550 -0.498571
f 6//1 8//1 7//1
f 5//2 6//2 7//2
f 1//3 2//3 8//3
f 6//4 1//4 8//4
f 3//5 4//5 2//5
f 1//6 3//6 2//6
f 5//7 7//7 4//7
f 3//8 5//8 4//8
f 4//9 7//9 8//9
f 2//10 4//10 8//10
f 6//11 5//11 3//11
f 1//12 6//12 3//12
